<?xml version="1.0" encoding="UTF-8" standalone="no"?><svg xmlns="http://www.w3.org/2000/svg" xmlns:xlink="http://www.w3.org/1999/xlink" contentScriptType="application/ecmascript" contentStyleType="text/css" height="253px" preserveAspectRatio="none" style="width:635px;height:253px;" version="1.1" viewBox="0 0 635 253" width="635px" zoomAndPan="magnify"><defs/><g><!--cluster Zheltikov\\Arrays--><polygon fill="#FFFFFF" points="157,24,293,24,300,46.2969,613,46.2969,613,241,157,241,157,24" style="stroke: #000000; stroke-width: 1.5;"/><line style="stroke: #000000; stroke-width: 1.5;" x1="157" x2="300" y1="46.2969" y2="46.2969"/><text fill="#000000" font-family="sans-serif" font-size="14" font-weight="bold" lengthAdjust="spacingAndGlyphs" textLength="130" x="161" y="38.9951">Zheltikov\Arrays</text><!--class Zheltikov\\Arrays\\Dict--><rect fill="#FEFECE" height="32" id="Zheltikov\\Arrays\\Dict" style="stroke: #A80036; stroke-width: 1.5;" width="56" x="532.5" y="193"/><ellipse cx="547.5" cy="209" fill="#ADD1B2" rx="11" ry="11" style="stroke: #A80036; stroke-width: 1.0;"/><path d="M550.4688,214.6406 Q549.8906,214.9375 549.25,215.0781 Q548.6094,215.2344 547.9063,215.2344 Q545.4063,215.2344 544.0781,213.5938 Q542.7656,211.9375 542.7656,208.8125 Q542.7656,205.6875 544.0781,204.0313 Q545.4063,202.375 547.9063,202.375 Q548.6094,202.375 549.25,202.5313 Q549.9063,202.6875 550.4688,202.9844 L550.4688,205.7031 Q549.8438,205.125 549.25,204.8594 Q548.6563,204.5781 548.0313,204.5781 Q546.6875,204.5781 546,205.6563 Q545.3125,206.7188 545.3125,208.8125 Q545.3125,210.9063 546,211.9844 Q546.6875,213.0469 548.0313,213.0469 Q548.6563,213.0469 549.25,212.7813 Q549.8438,212.5 550.4688,211.9219 L550.4688,214.6406 Z "/><text fill="#000000" font-family="sans-serif" font-size="12" lengthAdjust="spacingAndGlyphs" textLength="24" x="561.5" y="213.1543">Dict</text><!--class Zheltikov\\Arrays\\AnyArray--><rect fill="#FEFECE" height="32" id="Zheltikov\\Arrays\\AnyArray" style="stroke: #A80036; stroke-width: 1.5;" width="88" x="376" y="126"/><ellipse cx="391" cy="142" fill="#B4A7E5" rx="11" ry="11" style="stroke: #A80036; stroke-width: 1.0;"/><path d="M386.9219,137.7656 L386.9219,135.6094 L394.3125,135.6094 L394.3125,137.7656 L391.8438,137.7656 L391.8438,145.8438 L394.3125,145.8438 L394.3125,148 L386.9219,148 L386.9219,145.8438 L389.3906,145.8438 L389.3906,137.7656 L386.9219,137.7656 Z "/><text fill="#000000" font-family="sans-serif" font-size="12" font-style="italic" lengthAdjust="spacingAndGlyphs" textLength="56" x="405" y="146.1543">AnyArray</text><!--class Zheltikov\\Arrays\\Keyset--><rect fill="#FEFECE" height="32" id="Zheltikov\\Arrays\\Keyset" style="stroke: #A80036; stroke-width: 1.5;" width="73" x="524" y="126"/><ellipse cx="539" cy="142" fill="#ADD1B2" rx="11" ry="11" style="stroke: #A80036; stroke-width: 1.0;"/><path d="M541.9688,147.6406 Q541.3906,147.9375 540.75,148.0781 Q540.1094,148.2344 539.4063,148.2344 Q536.9063,148.2344 535.5781,146.5938 Q534.2656,144.9375 534.2656,141.8125 Q534.2656,138.6875 535.5781,137.0313 Q536.9063,135.375 539.4063,135.375 Q540.1094,135.375 540.75,135.5313 Q541.4063,135.6875 541.9688,135.9844 L541.9688,138.7031 Q541.3438,138.125 540.75,137.8594 Q540.1563,137.5781 539.5313,137.5781 Q538.1875,137.5781 537.5,138.6563 Q536.8125,139.7188 536.8125,141.8125 Q536.8125,143.9063 537.5,144.9844 Q538.1875,146.0469 539.5313,146.0469 Q540.1563,146.0469 540.75,145.7813 Q541.3438,145.5 541.9688,144.9219 L541.9688,147.6406 Z "/><text fill="#000000" font-family="sans-serif" font-size="12" lengthAdjust="spacingAndGlyphs" textLength="41" x="553" y="146.1543">Keyset</text><!--class Zheltikov\\Arrays\\Vec--><rect fill="#FEFECE" height="32" id="Zheltikov\\Arrays\\Vec" style="stroke: #A80036; stroke-width: 1.5;" width="55" x="533" y="59"/><ellipse cx="548" cy="75" fill="#ADD1B2" rx="11" ry="11" style="stroke: #A80036; stroke-width: 1.0;"/><path d="M550.9688,80.6406 Q550.3906,80.9375 549.75,81.0781 Q549.1094,81.2344 548.4063,81.2344 Q545.9063,81.2344 544.5781,79.5938 Q543.2656,77.9375 543.2656,74.8125 Q543.2656,71.6875 544.5781,70.0313 Q545.9063,68.375 548.4063,68.375 Q549.1094,68.375 549.75,68.5313 Q550.4063,68.6875 550.9688,68.9844 L550.9688,71.7031 Q550.3438,71.125 549.75,70.8594 Q549.1563,70.5781 548.5313,70.5781 Q547.1875,70.5781 546.5,71.6563 Q545.8125,72.7188 545.8125,74.8125 Q545.8125,76.9063 546.5,77.9844 Q547.1875,79.0469 548.5313,79.0469 Q549.1563,79.0469 549.75,78.7813 Q550.3438,78.5 550.9688,77.9219 L550.9688,80.6406 Z "/><text fill="#000000" font-family="sans-serif" font-size="12" lengthAdjust="spacingAndGlyphs" textLength="23" x="562" y="79.1543">Vec</text><!--class Zheltikov\\Arrays\\KeyedTraversable--><rect fill="#FEFECE" height="32" id="Zheltikov\\Arrays\\KeyedTraversable" style="stroke: #A80036; stroke-width: 1.5;" width="143" x="173" y="126"/><ellipse cx="188" cy="142" fill="#B4A7E5" rx="11" ry="11" style="stroke: #A80036; stroke-width: 1.0;"/><path d="M183.9219,137.7656 L183.9219,135.6094 L191.3125,135.6094 L191.3125,137.7656 L188.8438,137.7656 L188.8438,145.8438 L191.3125,145.8438 L191.3125,148 L183.9219,148 L183.9219,145.8438 L186.3906,145.8438 L186.3906,137.7656 L183.9219,137.7656 Z "/><text fill="#000000" font-family="sans-serif" font-size="12" font-style="italic" lengthAdjust="spacingAndGlyphs" textLength="111" x="202" y="146.1543">KeyedTraversable</text><!--class ArrayAccess--><rect fill="#FEFECE" height="32" id="ArrayAccess" style="stroke: #A80036; stroke-width: 1.5;" width="107" x="6" y="59"/><ellipse cx="21" cy="75" fill="#B4A7E5" rx="11" ry="11" style="stroke: #A80036; stroke-width: 1.0;"/><path d="M16.9219,70.7656 L16.9219,68.6094 L24.3125,68.6094 L24.3125,70.7656 L21.8438,70.7656 L21.8438,78.8438 L24.3125,78.8438 L24.3125,81 L16.9219,81 L16.9219,78.8438 L19.3906,78.8438 L19.3906,70.7656 L16.9219,70.7656 Z "/><text fill="#000000" font-family="sans-serif" font-size="12" font-style="italic" lengthAdjust="spacingAndGlyphs" textLength="75" x="35" y="79.1543">ArrayAccess</text><!--class Countable--><rect fill="#FEFECE" height="32" id="Countable" style="stroke: #A80036; stroke-width: 1.5;" width="96" x="11.5" y="126"/><ellipse cx="26.5" cy="142" fill="#B4A7E5" rx="11" ry="11" style="stroke: #A80036; stroke-width: 1.0;"/><path d="M22.4219,137.7656 L22.4219,135.6094 L29.8125,135.6094 L29.8125,137.7656 L27.3438,137.7656 L27.3438,145.8438 L29.8125,145.8438 L29.8125,148 L22.4219,148 L22.4219,145.8438 L24.8906,145.8438 L24.8906,137.7656 L22.4219,137.7656 Z "/><text fill="#000000" font-family="sans-serif" font-size="12" font-style="italic" lengthAdjust="spacingAndGlyphs" textLength="64" x="40.5" y="146.1543">Countable</text><!--class Iterator--><rect fill="#FEFECE" height="32" id="Iterator" style="stroke: #A80036; stroke-width: 1.5;" width="80" x="19.5" y="193"/><ellipse cx="34.5" cy="209" fill="#B4A7E5" rx="11" ry="11" style="stroke: #A80036; stroke-width: 1.0;"/><path d="M30.4219,204.7656 L30.4219,202.6094 L37.8125,202.6094 L37.8125,204.7656 L35.3438,204.7656 L35.3438,212.8438 L37.8125,212.8438 L37.8125,215 L30.4219,215 L30.4219,212.8438 L32.8906,212.8438 L32.8906,204.7656 L30.4219,204.7656 Z "/><text fill="#000000" font-family="sans-serif" font-size="12" font-style="italic" lengthAdjust="spacingAndGlyphs" textLength="48" x="48.5" y="213.1543">Iterator</text><!--link Zheltikov\\Arrays\\AnyArray to Zheltikov\\Arrays\\Dict--><path d="M420,178.2 C420,178.2 420,203.67 420,203.67 C420,203.67 491.4,203.67 532.41,203.67 " fill="none" id="Zheltikov\\Arrays\\AnyArray-Zheltikov\\Arrays\\Dict" style="stroke: #A80036; stroke-width: 1.0; stroke-dasharray: 7.0,7.0;"/><polygon fill="none" points="413,178.2,420,158.2,427,178.2,413,178.2" style="stroke: #A80036; stroke-width: 1.0;"/><!--link Zheltikov\\Arrays\\AnyArray to Zheltikov\\Arrays\\Keyset--><path d="M484.07,142 C484.07,142 523.66,142 523.66,142 " fill="none" id="Zheltikov\\Arrays\\AnyArray-Zheltikov\\Arrays\\Keyset" style="stroke: #A80036; stroke-width: 1.0; stroke-dasharray: 7.0,7.0;"/><polygon fill="none" points="484.07,149,464.07,142,484.07,135,484.07,149" style="stroke: #A80036; stroke-width: 1.0;"/><!--link Zheltikov\\Arrays\\AnyArray to Zheltikov\\Arrays\\Vec--><path d="M420,105.95 C420,105.95 420,69.67 420,69.67 C420,69.67 491.8,69.67 532.74,69.67 " fill="none" id="Zheltikov\\Arrays\\AnyArray-Zheltikov\\Arrays\\Vec" style="stroke: #A80036; stroke-width: 1.0; stroke-dasharray: 7.0,7.0;"/><polygon fill="none" points="427,105.95,420,125.95,413,105.95,427,105.95" style="stroke: #A80036; stroke-width: 1.0;"/><!--link Zheltikov\\Arrays\\KeyedTraversable to Zheltikov\\Arrays\\AnyArray--><path d="M336.14,142 C336.14,142 375.76,142 375.76,142 " fill="none" id="Zheltikov\\Arrays\\KeyedTraversable-Zheltikov\\Arrays\\AnyArray" style="stroke: #A80036; stroke-width: 1.0;"/><polygon fill="none" points="336.14,149,316.14,142,336.14,135,336.14,149" style="stroke: #A80036; stroke-width: 1.0;"/><!--link ArrayAccess to Zheltikov\\Arrays\\KeyedTraversable--><path d="M133.15,80.33 C133.15,80.33 245,80.33 245,80.33 C245,80.33 245,107.53 245,125.8 " fill="none" id="ArrayAccess-Zheltikov\\Arrays\\KeyedTraversable" style="stroke: #A80036; stroke-width: 1.0;"/><polygon fill="none" points="133.15,87.33,113.15,80.33,133.15,73.33,133.15,87.33" style="stroke: #A80036; stroke-width: 1.0;"/><!--link Countable to Zheltikov\\Arrays\\KeyedTraversable--><path d="M127.62,142 C127.62,142 172.91,142 172.91,142 " fill="none" id="Countable-Zheltikov\\Arrays\\KeyedTraversable" style="stroke: #A80036; stroke-width: 1.0;"/><polygon fill="none" points="127.62,149,107.62,142,127.62,135,127.62,149" style="stroke: #A80036; stroke-width: 1.0;"/><!--link Iterator to Zheltikov\\Arrays\\KeyedTraversable--><path d="M119.75,214.33 C119.75,214.33 245,214.33 245,214.33 C245,214.33 245,179.36 245,158.05 " fill="none" id="Iterator-Zheltikov\\Arrays\\KeyedTraversable" style="stroke: #A80036; stroke-width: 1.0;"/><polygon fill="none" points="119.75,221.33,99.75,214.33,119.75,207.33,119.75,221.33" style="stroke: #A80036; stroke-width: 1.0;"/><!--
@startuml

skinparam shadowing false
skinparam linetype ortho
hide empty members
left to right direction
set namespaceSeparator \\


class \\Zheltikov\\Arrays\\Dict implements \\Zheltikov\\Arrays\\AnyArray {
}

class \\Zheltikov\\Arrays\\Keyset implements \\Zheltikov\\Arrays\\AnyArray {
}

class \\Zheltikov\\Arrays\\Vec implements \\Zheltikov\\Arrays\\AnyArray {
}

interface \\Zheltikov\\Arrays\\AnyArray extends \\Zheltikov\\Arrays\\KeyedTraversable {
}

interface \\Zheltikov\\Arrays\\KeyedTraversable extends \\ArrayAccess,\\Countable,\\Iterator {
}


@enduml

PlantUML version 1.2018.13(Mon Nov 26 20:11:51 MSK 2018)
(GPL source distribution)
Java Runtime: OpenJDK Runtime Environment
JVM: OpenJDK 64-Bit Server VM
Java Version: 11.0.11+9-Ubuntu-0ubuntu2.20.04
Operating System: Linux
OS Version: 5.11.22-21.06.11.12.40
Default Encoding: UTF-8
Language: en
Country: US
--></g></svg>